<svg width="87" height="55" viewBox="0 0 87 55" fill="none" xmlns="http://www.w3.org/2000/svg">
<ellipse rx="48.5235" ry="3.18445" transform="matrix(0.863338 -0.504627 0.495387 0.868672 43.5049 27.2525)" fill="#43456C"/>
<path d="M1.12432 25.8049C1.13807 24.1591 2.08442 22.4637 4.08896 20.8017C6.08875 19.1437 9.03455 17.6153 12.7573 16.3229C20.1939 13.7411 30.5165 12.1742 41.9512 12.2721C53.3858 12.3701 63.6808 14.1136 71.0732 16.8224C74.7738 18.1784 77.6936 19.757 79.6654 21.4491C81.6419 23.1451 82.5598 24.8565 82.546 26.5023C82.5323 28.148 81.5859 29.8434 79.5814 31.5054C77.5816 33.1634 74.6358 34.6918 70.9131 35.9842C63.4764 38.566 53.1538 40.1329 41.7192 40.035C30.2845 39.937 19.9896 38.1936 12.5971 35.4847C8.89655 34.1287 5.97672 32.5501 4.00493 30.8581C2.02844 29.162 1.11057 27.4506 1.12432 25.8049Z" fill="#F9D9D4" stroke="#43456C" stroke-width="2"/>
</svg>
